<svg xmlns="http://www.w3.org/2000/svg" width="960" height="540" viewBox="0 0 960 540" role="img" aria-label="Dot desktop cat preview">
  <rect width="960" height="540" fill="#fbf7ef"/>
  <rect x="104" y="90" width="752" height="360" rx="18" fill="#fffdf7" stroke="#24262b" stroke-opacity="0.18"/>
  <text x="144" y="156" fill="#24262b" font-family="Menlo, monospace" font-size="42" font-weight="700">Dot</text>
  <text x="146" y="196" fill="#686f78" font-family="Menlo, monospace" font-size="18">a tiny desktop pixel cat</text>
  <rect x="144" y="236" width="184" height="44" rx="7" fill="#24262b"/>
  <text x="174" y="264" fill="#fffdf7" font-family="Menlo, monospace" font-size="15">Download</text>
  <rect x="352" y="236" width="144" height="44" rx="7" fill="#ffffff" stroke="#24262b" stroke-opacity="0.2"/>
  <text x="382" y="264" fill="#24262b" font-family="Menlo, monospace" font-size="15">GitHub</text>
  <ellipse cx="682" cy="362" rx="120" ry="18" fill="#24262b" opacity="0.18"/>
  <path d="M598 279 L616 205 L660 259 L724 205 L746 279 L727 369 L616 369 Z" fill="#f7efe1" stroke="#24262b" stroke-width="11" stroke-linejoin="round"/>
  <path d="M602 275 L616 205 L660 259 L634 282 Z" fill="#262a31"/>
  <rect x="630" y="300" width="22" height="24" fill="#24262b"/>
  <rect x="694" y="300" width="22" height="24" fill="#24262b"/>
  <rect x="638" y="306" width="7" height="7" fill="#fffdf7"/>
  <rect x="702" y="306" width="7" height="7" fill="#fffdf7"/>
  <rect x="666" y="338" width="18" height="9" fill="#ff7a59"/>
  <rect x="610" y="338" width="54" height="7" fill="#24262b"/>
  <rect x="688" y="338" width="54" height="7" fill="#24262b"/>
  <rect x="622" y="354" width="42" height="7" fill="#24262b"/>
  <rect x="690" y="354" width="42" height="7" fill="#24262b"/>
</svg>
